<svg width="151" height="33" viewBox="0 0 151 33" fill="none" xmlns="http://www.w3.org/2000/svg">
<path d="M15.835 1.73083C15.8309 1.74909 15.833 1.76818 15.8408 1.78517H14.7482C14.7531 1.7675 14.7551 1.74914 14.754 1.73083H15.835Z" fill="white"/>
<path d="M0.60466 24.6525C0.67608 24.1126 0.816137 23.5839 1.02145 23.0793C1.43061 21.9097 2.07136 20.8342 2.90557 19.9168C3.73977 18.9994 4.75037 18.2589 5.87723 17.7393C7.5873 16.9647 9.50334 16.7658 11.3365 17.1728C12.5645 17.3945 13.8091 17.5115 15.057 17.5224C15.7634 17.4901 16.4662 17.6395 17.0981 17.9562C17.3169 18.0812 17.5111 18.2446 17.6716 18.4385C17.7982 18.5955 17.7681 18.6618 17.593 18.7397C16.8168 19.07 16.0038 19.3067 15.1714 19.4447C13.7361 19.6457 12.2902 19.7624 10.8411 19.7943C10.7277 19.7935 10.6152 19.813 10.5087 19.852C10.8833 19.8883 11.2602 19.9305 11.6319 19.9483C13.3664 20.1191 15.1175 19.9885 16.8074 19.5624C18.5067 19.1193 20.0041 18.1117 21.0527 16.7055C21.365 16.1988 21.8015 15.7799 22.321 15.4882C22.7484 15.2784 23.2366 15.2269 23.6985 15.3428C23.8251 15.3728 23.8679 15.4149 23.8014 15.5476C23.0373 17.2096 22.0451 18.7573 20.8533 20.1462C19.6028 21.4836 17.9639 22.3963 16.1669 22.7562C14.7094 23.059 13.2228 23.2005 11.7342 23.1779C10.2365 23.1722 8.73867 23.0995 7.23512 23.1837C5.38343 23.2195 3.54664 23.5221 1.78161 24.082C1.37132 24.2328 0.977061 24.4239 0.60466 24.6525Z" fill="#00A6E0"/>
<path d="M9.57877 12.7668C11.4748 11.036 13.3108 9.36755 15.1409 7.68583C15.3144 7.52314 15.3826 7.6616 15.4733 7.75218C16.959 9.10217 18.4446 10.4562 19.9302 11.8143C20.2563 12.1097 20.5823 12.4108 20.9748 12.7668C20.5037 12.7668 20.1112 12.7847 19.7187 12.761C19.4348 12.7431 19.3441 12.8152 19.3504 13.1164C19.3684 14.4243 19.3504 15.7264 19.3626 17.0342C19.3787 17.1471 19.3603 17.2622 19.3096 17.3643C19.2589 17.4665 19.1785 17.5509 19.0788 17.6066C19.0218 17.6475 18.9673 17.6918 18.9157 17.7392C18.4446 18.0889 18.4533 18.0889 18.0278 17.6908C17.462 17.167 16.7325 16.854 15.9624 16.8046C15.008 16.7204 14.0548 16.6783 13.0998 16.6241C12.5564 16.5941 12.0246 16.4792 11.4875 16.4129C11.2638 16.3829 11.1794 16.3044 11.1794 16.0575C11.1974 15.0508 11.1794 14.0504 11.1916 13.0437C11.1916 12.8204 11.1372 12.7483 10.9077 12.7604C10.4967 12.7783 10.0742 12.7668 9.57877 12.7668ZM16.9532 14.5206C17.2127 14.5206 17.4787 14.5148 17.7382 14.5206C17.8833 14.5264 17.9556 14.4964 17.9498 14.3279C17.9376 13.8277 17.944 13.3275 17.9498 12.821C17.9498 12.6883 17.9255 12.622 17.7688 12.6283C17.2434 12.6341 16.7243 12.6341 16.1988 12.6283C16.0537 12.6283 16.0115 12.6768 16.0115 12.821C16.0173 13.3212 16.0237 13.8277 16.0115 14.3279C16.0057 14.497 16.078 14.527 16.2289 14.5206C16.4693 14.5143 16.711 14.5206 16.9532 14.5206ZM13.583 12.6341C13.3235 12.6341 13.0576 12.6398 12.798 12.6341C12.6529 12.6283 12.605 12.6762 12.6107 12.821C12.6165 13.3212 12.6165 13.8214 12.6107 14.3279C12.605 14.497 12.6685 14.5269 12.8223 14.5269C13.3235 14.5212 13.8247 14.5212 14.3322 14.5269C14.4895 14.5269 14.5374 14.4785 14.5374 14.3221C14.5317 13.882 14.5195 13.436 14.5432 12.9952C14.5611 12.7177 14.4947 12.5914 14.1929 12.6335C13.9896 12.6458 13.7858 12.646 13.5825 12.6341H13.583Z" fill="#4FA800"/>
<path d="M14.742 1.78528H15.8352C19.7186 2.13143 22.483 4.07565 24.0438 7.63178C25.0103 9.83792 24.9617 13.6952 24.086 14.575C24.6236 11.1337 23.6634 8.2162 21.006 5.94371C20.1014 5.16016 19.0423 4.5746 17.897 4.22482C16.7516 3.87503 15.5455 3.76879 14.3565 3.91296C13.0972 4.04517 11.8799 4.4408 10.7841 5.07406C9.68829 5.70731 8.73852 6.56396 7.99673 7.58816C7.25493 8.61235 6.73778 9.78109 6.47898 11.0182C6.22017 12.2552 6.22554 13.5328 6.49473 14.7677C5.9914 13.5878 5.74459 12.3148 5.7706 11.0327C5.79661 9.75062 6.09484 8.48862 6.6456 7.33005C8.25033 3.94296 10.9858 2.09855 14.742 1.78528Z" fill="#00A6E0"/>
<path d="M37.9556 8.69917C36.1327 8.69917 34.7086 9.41222 33.7402 10.6101V4.1642C33.7402 3.28002 33.0281 2.53845 32.1452 2.53845C31.2622 2.53845 30.5217 3.28002 30.5217 4.1642V21.0776C30.5217 21.9618 31.2622 22.6749 32.1452 22.6749C33.0281 22.6749 33.7402 21.9618 33.7402 21.0776V14.974C33.7402 13.063 35.1358 11.6654 36.9017 11.6654C38.5537 11.6654 39.9778 12.8634 39.9778 14.8314V21.0776C39.9778 21.9618 40.6899 22.6749 41.6014 22.6749C42.4843 22.6749 43.1964 21.9618 43.1964 21.0776V14.3465C43.1964 10.7813 41.0602 8.69917 37.9556 8.69917Z" fill="#00A6E0"/>
<path d="M53.204 22.846C57.0491 22.846 60.1822 19.9083 60.1822 15.7726C60.1822 11.6369 57.0491 8.69917 53.204 8.69917C49.3304 8.69917 46.1973 11.6369 46.1973 15.7726C46.1973 19.9083 49.3304 22.846 53.204 22.846ZM53.204 19.8797C51.1532 19.8797 49.5297 18.1684 49.5297 15.7726C49.5297 13.3768 51.1532 11.6654 53.204 11.6654C55.2262 11.6654 56.8497 13.3768 56.8497 15.7726C56.8497 18.1684 55.2262 19.8797 53.204 19.8797Z" fill="#00A6E0"/>
<path d="M80.0897 8.69917C77.8965 8.69917 76.1876 9.64039 75.1907 11.1235C74.3077 9.55483 72.7127 8.69917 70.719 8.69917C68.8961 8.69917 67.4719 9.41222 66.5035 10.6101V10.4675C66.5035 9.58335 65.7915 8.8703 64.9085 8.8703C64.0256 8.8703 63.285 9.58335 63.285 10.4675V21.0776C63.285 21.9618 64.0256 22.6749 64.9085 22.6749C65.7915 22.6749 66.5035 21.9618 66.5035 21.0776V14.974C66.5035 13.063 67.8992 11.6654 69.6651 11.6654C71.3171 11.6654 72.7412 12.8634 72.7412 14.8314V21.0776C72.7412 21.9618 73.4533 22.6749 74.3647 22.6749C75.2477 22.6749 75.9597 21.9618 75.9597 21.0776V14.974C75.9597 13.063 77.3554 11.6654 79.1213 11.6654C80.7733 11.6654 82.1974 12.8634 82.1974 14.8314V21.0776C82.1974 21.9618 82.9095 22.6749 83.8209 22.6749C84.7039 22.6749 85.4159 21.9618 85.4159 21.0776V14.3465C85.3874 10.6672 83.2228 8.69917 80.0897 8.69917Z" fill="#00A6E0"/>
<path d="M90.1009 22.6749H99.2438C100.07 22.6749 100.725 22.0189 100.725 21.1917C100.725 20.3931 100.07 19.7086 99.2438 19.7086H93.12L100.383 11.6369C100.611 11.3802 100.753 11.095 100.782 10.7813C100.896 10.2393 100.696 9.66891 100.269 9.29813C99.9273 8.98439 99.5001 8.8703 99.0729 8.8703H90.3572C89.5312 8.8703 88.8761 9.55483 88.8761 10.3534C88.8761 11.1806 89.5312 11.8366 90.3572 11.8366H96.0822L88.8191 19.9368C88.5343 20.222 88.3919 20.5928 88.3634 20.9636C88.3349 21.4199 88.5058 21.9048 88.9046 22.247C89.2179 22.5608 89.6736 22.7034 90.1009 22.6749Z" fill="#00A6E0"/>
<path d="M111.56 8.69929C109.738 8.69929 108.313 9.41234 107.345 10.6103V4.16432C107.345 3.28014 106.633 2.53857 105.75 2.53857C104.867 2.53857 104.126 3.28014 104.126 4.16432V21.0778C104.126 21.9619 104.867 22.675 105.75 22.675C106.633 22.675 107.345 21.9619 107.345 21.0778V14.9741C107.345 13.0631 108.741 11.6656 110.507 11.6656C112.159 11.6656 113.583 12.8635 113.583 14.8315V21.0778C113.583 21.9619 114.295 22.675 115.206 22.675C116.089 22.675 116.801 21.9619 116.801 21.0778V14.3466C116.801 10.7814 114.665 8.69929 111.56 8.69929Z" fill="#4FA800"/>
<path d="M131.167 8.87042C130.255 8.87042 129.543 9.61199 129.543 10.4962V16.5998C129.543 18.5108 128.147 19.8799 126.382 19.8799C124.73 19.8799 123.305 18.7105 123.305 16.7424V10.4962C123.305 9.58347 122.593 8.87042 121.71 8.87042C120.827 8.87042 120.087 9.61199 120.087 10.4962V17.2273C120.087 20.7926 122.252 22.8461 125.328 22.8461C127.151 22.8461 128.603 22.1616 129.543 20.9637V21.0778C129.543 21.9619 130.255 22.675 131.167 22.675C132.05 22.675 132.762 21.9619 132.762 21.0778V10.4962C132.762 9.61199 132.05 8.87042 131.167 8.87042Z" fill="#4FA800"/>
<path d="M143.801 8.69929C142.12 8.69929 140.611 9.38382 139.5 10.5532V4.19284C139.5 3.28014 138.759 2.53857 137.876 2.53857C136.965 2.53857 136.224 3.28014 136.224 4.19284V21.0492C136.224 21.9619 136.965 22.675 137.876 22.675C138.759 22.675 139.5 21.9619 139.5 21.0492V21.0207C140.611 22.1901 142.12 22.8461 143.801 22.8461C147.247 22.8461 150.067 19.9084 150.067 15.7727C150.067 11.637 147.247 8.69929 143.801 8.69929ZM143.06 19.8799C141.038 19.8799 139.386 18.1685 139.386 15.7727C139.386 13.3769 141.038 11.6656 143.06 11.6656C145.082 11.6656 146.734 13.3769 146.734 15.7727C146.734 18.1685 145.082 19.8799 143.06 19.8799Z" fill="#4FA800"/>
<path d="M32.9981 29.7992L34.3449 26.9893H35.4706L33.5087 30.7359V32.9187H32.4876V30.7359L30.5217 26.9893H31.6513L32.9981 29.7992Z" fill="#33495E"/>
<path d="M40.8214 30.1087C40.8214 30.6897 40.7222 31.2001 40.5239 31.6399C40.3256 32.077 40.0415 32.4137 39.6716 32.6499C39.3044 32.8834 38.881 33.0001 38.4012 33.0001C37.9268 33.0001 37.5033 32.8834 37.1308 32.6499C36.7609 32.4137 36.4742 32.0784 36.2705 31.644C36.0695 31.2096 35.9676 30.7087 35.9649 30.1413V29.8074C35.9649 29.2291 36.0654 28.7187 36.2664 28.2762C36.4701 27.8336 36.7556 27.4956 37.1228 27.2621C37.4926 27.0259 37.9161 26.9078 38.3932 26.9078C38.8702 26.9078 39.2924 27.0246 39.6595 27.2581C40.0294 27.4888 40.3148 27.8228 40.5159 28.2599C40.7169 28.6942 40.8187 29.2006 40.8214 29.7789V30.1087ZM39.8043 29.7992C39.8043 29.1422 39.681 28.6386 39.4344 28.2884C39.1905 27.9381 38.8434 27.763 38.3932 27.763C37.9536 27.763 37.6092 27.9381 37.36 28.2884C37.1134 28.6359 36.9874 29.1286 36.9821 29.7666V30.1087C36.9821 30.7603 37.1067 31.2639 37.3559 31.6196C37.6079 31.9752 37.9563 32.153 38.4012 32.153C38.8515 32.153 39.1972 31.9793 39.4384 31.6318C39.6823 31.2843 39.8043 30.7766 39.8043 30.1087V29.7992Z" fill="#33495E"/>
<path d="M46.2808 26.9893V30.9517C46.2808 31.5816 46.0811 32.0811 45.6817 32.4503C45.2851 32.8168 44.7557 33.0001 44.0937 33.0001C43.4237 33.0001 42.8917 32.8196 42.4977 32.4585C42.1037 32.0947 41.9067 31.5911 41.9067 30.9476V26.9893H42.9198V30.9558C42.9198 31.3521 43.019 31.6549 43.2173 31.8639C43.4156 32.073 43.7078 32.1775 44.0937 32.1775C44.8763 32.1775 45.2676 31.7594 45.2676 30.9232V26.9893H46.2808Z" fill="#33495E"/>
<path d="M49.6858 30.6341H48.552V32.9187H47.5349V26.9893H49.5933C50.2687 26.9893 50.79 27.1427 51.1572 27.4495C51.5244 27.7562 51.7079 28.2001 51.7079 28.7811C51.7079 29.1775 51.6128 29.5101 51.4225 29.7789C51.2349 30.0449 50.9722 30.2499 50.6345 30.3938L51.9492 32.8657V32.9187H50.8597L49.6858 30.6341ZM48.552 29.8074H49.5973C49.9404 29.8074 50.2084 29.7205 50.4014 29.5467C50.5943 29.3703 50.6908 29.13 50.6908 28.8259C50.6908 28.5083 50.601 28.2626 50.4215 28.0888C50.2446 27.9151 49.9792 27.8255 49.6255 27.82H48.552V29.8074Z" fill="#33495E"/>
<path d="M58.2846 30.7155V32.9187H57.2675V26.9893H59.5068C60.1607 26.9893 60.6793 27.1617 61.0626 27.5065C61.4486 27.8513 61.6415 28.3074 61.6415 28.8748C61.6415 29.4558 61.4526 29.9078 61.0747 30.2309C60.6994 30.554 60.1728 30.7155 59.4947 30.7155H58.2846ZM58.2846 29.8888H59.5068C59.8686 29.8888 60.1447 29.8033 60.3349 29.6323C60.5252 29.4585 60.6204 29.2087 60.6204 28.8829C60.6204 28.5626 60.5239 28.3074 60.3309 28.1173C60.138 27.9246 59.8726 27.8255 59.5349 27.82H58.2846V29.8888Z" fill="#33495E"/>
<path d="M64.8495 30.6341H63.7158V32.9187H62.6987V26.9893H64.7571C65.4325 26.9893 65.9538 27.1427 66.321 27.4495C66.6881 27.7562 66.8717 28.2001 66.8717 28.7811C66.8717 29.1775 66.7766 29.5101 66.5863 29.7789C66.3987 30.0449 66.136 30.2499 65.7983 30.3938L67.1129 32.8657V32.9187H66.0235L64.8495 30.6341ZM63.7158 29.8074H64.7611C65.1042 29.8074 65.3722 29.7205 65.5652 29.5467C65.7581 29.3703 65.8546 29.13 65.8546 28.8259C65.8546 28.5083 65.7648 28.2626 65.5853 28.0888C65.4084 27.9151 65.143 27.8255 64.7892 27.82H63.7158V29.8074Z" fill="#33495E"/>
<path d="M72.6728 30.1087C72.6728 30.6897 72.5736 31.2001 72.3753 31.6399C72.177 32.077 71.8929 32.4137 71.523 32.6499C71.1558 32.8834 70.7324 33.0001 70.2526 33.0001C69.7782 33.0001 69.3548 32.8834 68.9822 32.6499C68.6123 32.4137 68.3256 32.0784 68.1219 31.644C67.9209 31.2096 67.819 30.7087 67.8163 30.1413V29.8074C67.8163 29.2291 67.9168 28.7187 68.1179 28.2762C68.3215 27.8336 68.607 27.4956 68.9742 27.2621C69.344 27.0259 69.7675 26.9078 70.2446 26.9078C70.7216 26.9078 71.1438 27.0246 71.511 27.2581C71.8808 27.4888 72.1663 27.8228 72.3673 28.2599C72.5683 28.6942 72.6701 29.2006 72.6728 29.7789V30.1087ZM71.6557 29.7992C71.6557 29.1422 71.5324 28.6386 71.2858 28.2884C71.0419 27.9381 70.6948 27.763 70.2446 27.763C69.805 27.763 69.4606 27.9381 69.2114 28.2884C68.9648 28.6359 68.8388 29.1286 68.8335 29.7666V30.1087C68.8335 30.7603 68.9581 31.2639 69.2073 31.6196C69.4593 31.9752 69.8077 32.153 70.2526 32.153C70.7029 32.153 71.0486 31.9793 71.2898 31.6318C71.5337 31.2843 71.6557 30.7766 71.6557 30.1087V29.7992Z" fill="#33495E"/>
<path d="M74.8677 30.7155V32.9187H73.8506V26.9893H76.0899C76.7438 26.9893 77.2624 27.1617 77.6457 27.5065C78.0317 27.8513 78.2246 28.3074 78.2246 28.8748C78.2246 29.4558 78.0357 29.9078 77.6578 30.2309C77.2825 30.554 76.7559 30.7155 76.0778 30.7155H74.8677ZM74.8677 29.8888H76.0899C76.4517 29.8888 76.7277 29.8033 76.918 29.6323C77.1083 29.4585 77.2035 29.2087 77.2035 28.8829C77.2035 28.5626 77.107 28.3074 76.914 28.1173C76.7211 27.9246 76.4557 27.8255 76.118 27.82H74.8677V29.8888Z" fill="#33495E"/>
<path d="M82.703 30.2716H80.2989V32.096H83.1091V32.9187H79.2818V26.9893H83.0809V27.82H80.2989V29.4571H82.703V30.2716Z" fill="#33495E"/>
<path d="M86.2528 30.6341H85.1191V32.9187H84.1019V26.9893H86.1603C86.8357 26.9893 87.357 27.1427 87.7242 27.4495C88.0914 27.7562 88.275 28.2001 88.275 28.7811C88.275 29.1775 88.1798 29.5101 87.9895 29.7789C87.8019 30.0449 87.5393 30.2499 87.2015 30.3938L88.5162 32.8657V32.9187H87.4267L86.2528 30.6341ZM85.1191 29.8074H86.1643C86.5074 29.8074 86.7754 29.7205 86.9684 29.5467C87.1613 29.3703 87.2578 29.13 87.2578 28.8259C87.2578 28.5083 87.168 28.2626 86.9885 28.0888C86.8116 27.9151 86.5462 27.8255 86.1925 27.82H85.1191V29.8074Z" fill="#33495E"/>
<path d="M93.4328 27.82H91.6076V32.9187H90.5985V27.82H88.7894V26.9893H93.4328V27.82Z" fill="#33495E"/>
<path d="M96.3433 29.7992L97.6901 26.9893H98.8158L96.8539 30.7359V32.9187H95.8327V30.7359L93.8668 26.9893H94.9965L96.3433 29.7992Z" fill="#33495E"/>
<path d="M108.512 30.9884C108.453 31.6209 108.223 32.115 107.821 32.4707C107.419 32.8236 106.884 33.0001 106.217 33.0001C105.75 33.0001 105.339 32.8888 104.982 32.6662C104.629 32.4408 104.355 32.1218 104.162 31.7092C103.969 31.2965 103.869 30.8173 103.861 30.2716V29.7178C103.861 29.1585 103.959 28.6657 104.154 28.2395C104.35 27.8133 104.63 27.4848 104.994 27.254C105.362 27.0232 105.785 26.9078 106.265 26.9078C106.911 26.9078 107.431 27.0857 107.825 27.4413C108.219 27.797 108.448 28.2992 108.512 28.9481H107.499C107.451 28.5219 107.328 28.2151 107.129 28.0277C106.934 27.8377 106.645 27.7427 106.265 27.7427C105.823 27.7427 105.482 27.9069 105.244 28.2354C105.008 28.5612 104.887 29.0404 104.882 29.673V30.1983C104.882 30.839 104.994 31.3277 105.22 31.6644C105.447 32.001 105.78 32.1693 106.217 32.1693C106.616 32.1693 106.916 32.0784 107.117 31.8965C107.318 31.7146 107.445 31.4119 107.499 30.9884H108.512Z" fill="#33495E"/>
<path d="M113.871 26.9893V30.9517C113.871 31.5816 113.671 32.0811 113.272 32.4503C112.875 32.8168 112.346 33.0001 111.684 33.0001C111.014 33.0001 110.482 32.8196 110.088 32.4585C109.694 32.0947 109.497 31.5911 109.497 30.9476V26.9893H110.51V30.9558C110.51 31.3521 110.609 31.6549 110.808 31.8639C111.006 32.073 111.298 32.1775 111.684 32.1775C112.467 32.1775 112.858 31.7594 112.858 30.9232V26.9893H113.871Z" fill="#33495E"/>
<path d="M118.185 31.3915C118.185 31.1309 118.093 30.93 117.911 30.7888C117.732 30.6476 117.406 30.5051 116.934 30.3612C116.463 30.2173 116.087 30.0571 115.809 29.8807C115.275 29.5413 115.009 29.0988 115.009 28.5531C115.009 28.0752 115.2 27.6816 115.583 27.3721C115.969 27.0626 116.469 26.9078 117.083 26.9078C117.49 26.9078 117.854 26.9839 118.173 27.1359C118.491 27.2879 118.742 27.5051 118.924 27.7875C119.107 28.0671 119.198 28.378 119.198 28.72H118.185C118.185 28.4105 118.088 28.1689 117.895 27.9952C117.705 27.8187 117.431 27.7305 117.075 27.7305C116.743 27.7305 116.484 27.8024 116.299 27.9463C116.117 28.0902 116.026 28.2911 116.026 28.549C116.026 28.7662 116.125 28.9481 116.323 29.0947C116.522 29.2386 116.849 29.3798 117.304 29.5182C117.76 29.654 118.126 29.8101 118.402 29.9865C118.678 30.1603 118.88 30.3612 119.009 30.5893C119.137 30.8146 119.202 31.0793 119.202 31.3834C119.202 31.8775 119.014 32.2711 118.639 32.5644C118.266 32.8549 117.76 33.0001 117.119 33.0001C116.696 33.0001 116.306 32.9214 115.949 32.7639C115.596 32.6037 115.319 32.3838 115.121 32.1042C114.925 31.8245 114.828 31.4988 114.828 31.1268H115.845C115.845 31.4635 115.955 31.7241 116.174 31.9087C116.394 32.0933 116.709 32.1856 117.119 32.1856C117.473 32.1856 117.738 32.1137 117.915 31.9698C118.095 31.8232 118.185 31.6304 118.185 31.3915Z" fill="#33495E"/>
<path d="M124.488 27.82H122.663V32.9187H121.654V27.82H119.845V26.9893H124.488V27.82Z" fill="#33495E"/>
<path d="M129.984 30.1087C129.984 30.6897 129.885 31.2001 129.686 31.6399C129.488 32.077 129.204 32.4137 128.834 32.6499C128.467 32.8834 128.043 33.0001 127.564 33.0001C127.089 33.0001 126.666 32.8834 126.293 32.6499C125.923 32.4137 125.636 32.0784 125.433 31.644C125.232 31.2096 125.13 30.7087 125.127 30.1413V29.8074C125.127 29.2291 125.228 28.7187 125.429 28.2762C125.632 27.8336 125.918 27.4956 126.285 27.2621C126.655 27.0259 127.078 26.9078 127.555 26.9078C128.033 26.9078 128.455 27.0246 128.822 27.2581C129.192 27.4888 129.477 27.8228 129.678 28.2599C129.879 28.6942 129.981 29.2006 129.984 29.7789V30.1087ZM128.967 29.7992C128.967 29.1422 128.843 28.6386 128.597 28.2884C128.353 27.9381 128.006 27.763 127.555 27.763C127.116 27.763 126.772 27.9381 126.522 28.2884C126.276 28.6359 126.15 29.1286 126.144 29.7666V30.1087C126.144 30.7603 126.269 31.2639 126.518 31.6196C126.77 31.9752 127.119 32.153 127.564 32.153C128.014 32.153 128.36 31.9793 128.601 31.6318C128.845 31.2843 128.967 30.7766 128.967 30.1087V29.7992Z" fill="#33495E"/>
<path d="M131.162 32.9187V26.9893H132.89C133.407 26.9893 133.866 27.106 134.265 27.3395C134.667 27.573 134.978 27.9042 135.198 28.3332C135.418 28.7621 135.528 29.2535 135.528 29.8074V30.1046C135.528 30.6666 135.416 31.1607 135.194 31.587C134.974 32.0132 134.659 32.3417 134.249 32.5725C133.842 32.8033 133.374 32.9187 132.846 32.9187H131.162ZM132.179 27.82V32.096H132.842C133.375 32.096 133.784 31.9277 134.068 31.5911C134.355 31.2517 134.501 30.7657 134.506 30.1332V29.8033C134.506 29.1599 134.368 28.6685 134.092 28.3291C133.816 27.9897 133.416 27.82 132.89 27.82H132.179Z" fill="#33495E"/>
<path d="M137.779 32.9187H136.766V26.9893H137.779V32.9187Z" fill="#33495E"/>
<path d="M142.543 31.5381H140.275L139.801 32.9187H138.743L140.955 26.9893H141.867L144.082 32.9187H143.021L142.543 31.5381ZM140.561 30.7074H142.257L141.409 28.2476L140.561 30.7074Z" fill="#33495E"/>
<path d="M149.558 32.9187H148.541L145.931 28.7119V32.9187H144.914V26.9893H145.931L148.549 31.2123V26.9893H149.558V32.9187Z" fill="#33495E"/>
</svg>
