<svg width="61" height="65" viewBox="0 0 61 65" fill="none" xmlns="http://www.w3.org/2000/svg">
<ellipse cx="31.6481" cy="29.0846" rx="29.2893" ry="29.0846" fill="#F0F5F9"/>
<path d="M41.9226 15.6426C41.2253 12.688 39.017 10.5413 36.367 10.5413C33.7402 10.5413 31.5319 12.688 30.8346 15.6426H29.1609V50.1979H43.5963V15.6426H41.9226Z" fill="url(#paint0_linear)"/>
<path d="M27.8357 33.209H12.2612V38.0564H27.8357V33.209Z" fill="url(#paint1_linear)"/>
<path d="M27.7874 39.88H12.213V50.1981H27.7874V39.88Z" fill="url(#paint2_linear)"/>
<path d="M11.7957 32.8625H28.3465L20.0246 29.5616L11.7957 32.8625Z" fill="#03DABB"/>
<path d="M14.9112 34.132H13.2375V36.925H14.9112V34.132Z" fill="white"/>
<path d="M16.9091 34.132H15.2354V36.925H16.9091V34.132Z" fill="white"/>
<path d="M19.8128 34.132H18.1391V36.925H19.8128V34.132Z" fill="white"/>
<path d="M21.8139 34.132H20.1403V36.925H21.8139V34.132Z" fill="white"/>
<path d="M24.8803 34.132H23.2066V36.925H24.8803V34.132Z" fill="white"/>
<path d="M26.8808 34.132H25.2072V36.925H26.8808V34.132Z" fill="white"/>
<path d="M14.7697 40.9187H13.096V43.7117H14.7697V40.9187Z" fill="white"/>
<path d="M16.7702 40.9187H15.0965V43.7117H16.7702V40.9187Z" fill="white"/>
<path d="M19.6746 40.9187H18.0009V43.7117H19.6746V40.9187Z" fill="white"/>
<path d="M21.6764 40.9187H20.0027V43.7117H21.6764V40.9187Z" fill="white"/>
<path d="M24.7428 40.9187H23.0691V43.7117H24.7428V40.9187Z" fill="white"/>
<path d="M26.744 40.9187H25.0703V43.7117H26.744V40.9187Z" fill="white"/>
<path d="M27.7874 38.4716H12.213V39.5334H27.7874V38.4716Z" fill="url(#paint3_linear)"/>
<path d="M31.9034 17.9276H30.8341V20.6283H31.9034V17.9276Z" fill="white"/>
<path d="M33.3207 17.9276H32.2514V20.6283H33.3207V17.9276Z" fill="white"/>
<path d="M35.9946 17.9276H34.9254V20.6283H35.9946V17.9276Z" fill="white"/>
<path d="M37.3885 17.9276H36.3192V20.6283H37.3885V17.9276Z" fill="white"/>
<path d="M40.2476 17.9276H39.1783V20.6283H40.2476V17.9276Z" fill="white"/>
<path d="M41.6411 17.9276H40.5718V20.6283H41.6411V17.9276Z" fill="white"/>
<path d="M31.9034 22.2209H30.8341V24.9217H31.9034V22.2209Z" fill="white"/>
<path d="M33.3207 22.2209H32.2514V24.9217H33.3207V22.2209Z" fill="white"/>
<path d="M35.9946 22.2209H34.9254V24.9217H35.9946V22.2209Z" fill="white"/>
<path d="M37.3885 22.2209H36.3192V24.9217H37.3885V22.2209Z" fill="white"/>
<path d="M40.2476 22.2209H39.1783V24.9217H40.2476V22.2209Z" fill="white"/>
<path d="M41.6411 22.2209H40.5718V24.9217H41.6411V22.2209Z" fill="white"/>
<path d="M31.8343 26.0533H30.765V28.7541H31.8343V26.0533Z" fill="white"/>
<path d="M33.2526 26.0533H32.1833V28.7541H33.2526V26.0533Z" fill="white"/>
<path d="M35.9256 26.0533H34.8563V28.7541H35.9256V26.0533Z" fill="white"/>
<path d="M37.319 26.0533H36.2498V28.7541H37.319V26.0533Z" fill="white"/>
<path d="M40.1788 26.0533H39.1095V28.7541H40.1788V26.0533Z" fill="white"/>
<path d="M41.572 26.0533H40.5027V28.7541H41.572V26.0533Z" fill="white"/>
<path d="M31.8343 30.3466H30.765V33.0473H31.8343V30.3466Z" fill="white"/>
<path d="M33.2526 30.3466H32.1833V33.0473H33.2526V30.3466Z" fill="white"/>
<path d="M35.9256 30.3466H34.8563V33.0473H35.9256V30.3466Z" fill="white"/>
<path d="M37.319 30.3466H36.2498V33.0473H37.319V30.3466Z" fill="white"/>
<path d="M40.1788 30.3466H39.1095V33.0473H40.1788V30.3466Z" fill="white"/>
<path d="M41.572 30.3466H40.5027V33.0473H41.572V30.3466Z" fill="white"/>
<path d="M31.8343 34.5704H30.765V37.2712H31.8343V34.5704Z" fill="white"/>
<path d="M33.2526 34.5704H32.1833V37.2712H33.2526V34.5704Z" fill="white"/>
<path d="M35.9256 34.5704H34.8563V37.2712H35.9256V34.5704Z" fill="white"/>
<path d="M37.319 34.5704H36.2498V37.2712H37.319V34.5704Z" fill="white"/>
<path d="M40.1788 34.5704H39.1095V37.2712H40.1788V34.5704Z" fill="white"/>
<path d="M41.572 34.5704H40.5027V37.2712H41.572V34.5704Z" fill="white"/>
<path d="M31.8343 38.8644H30.765V41.5651H31.8343V38.8644Z" fill="white"/>
<path d="M33.2526 38.8644H32.1833V41.5651H33.2526V38.8644Z" fill="white"/>
<path d="M35.9256 38.8644H34.8563V41.5651H35.9256V38.8644Z" fill="white"/>
<path d="M37.319 38.8644H36.2498V41.5651H37.319V38.8644Z" fill="white"/>
<path d="M40.1788 38.8644H39.1095V41.5651H40.1788V38.8644Z" fill="white"/>
<path d="M41.572 38.8644H40.5027V41.5651H41.572V38.8644Z" fill="white"/>
<path d="M60.0511 41.2434C58.7264 44.1372 56.3408 48.3533 53.2915 52.018C50.1085 55.8436 46.2433 59.0185 42.1447 59.5285C39.5356 59.8532 36.0354 59.9786 32.1316 60.0744C31.3073 60.0946 30.4653 60.1135 29.6103 60.1327C26.4211 60.2043 23.0514 60.2799 19.7511 60.4435C15.5663 60.6508 11.4821 60.9999 8.00449 61.6639C4.9004 62.2566 2.24808 63.1056 0.44054 64.3523C1.44435 60.9919 3.70928 56.3703 7.49341 52.6295C11.5452 48.624 17.3367 45.6287 25.2045 46.2648C27.9775 46.4891 30.3252 46.6741 32.3144 46.8309C37.4617 47.2366 40.2084 47.4531 41.7111 47.6693C42.2302 47.744 42.5889 47.8172 42.8421 47.8948C43.0953 47.9723 43.2249 48.049 43.3015 48.12C43.3745 48.1878 43.4183 48.2676 43.4668 48.3985C43.4801 48.4346 43.4947 48.4779 43.5112 48.5265C43.5497 48.6404 43.598 48.7832 43.6619 48.9287C43.7322 49.0886 43.7472 49.2317 43.724 49.363C43.7005 49.4964 43.6348 49.6336 43.5193 49.7745C43.2839 50.0616 42.8635 50.3372 42.2915 50.5821C41.1536 51.0693 39.5195 51.3921 37.9223 51.4915C35.339 51.6522 29.4464 52.0272 26.8231 52.1946L26.8242 52.6937C28.8114 52.811 31.9633 52.9518 34.9629 52.9929C37.9509 53.0338 40.8218 52.9768 42.2257 52.689C43.9946 52.3265 46.4264 50.9945 48.6648 49.3957C50.9069 47.7942 53.0013 45.8916 54.0842 44.3514C54.9228 43.159 55.641 42.3884 56.1926 41.9106C56.4684 41.6716 56.7006 41.5076 56.8834 41.4007C57.0539 41.3011 57.1703 41.2576 57.2333 41.2434H60.0511Z" fill="url(#paint4_linear)" stroke="white" stroke-width="0.5"/>
<defs>
<linearGradient id="paint0_linear" x1="29.1555" y1="30.3696" x2="43.595" y2="30.3696" gradientUnits="userSpaceOnUse">
<stop stop-color="#03ADCB"/>
<stop offset="1" stop-color="#03DABB"/>
</linearGradient>
<linearGradient id="paint1_linear" x1="12.2503" y1="35.6277" x2="27.8132" y2="35.6277" gradientUnits="userSpaceOnUse">
<stop stop-color="#03ADCB"/>
<stop offset="1" stop-color="#03DABB"/>
</linearGradient>
<linearGradient id="paint2_linear" x1="12.2244" y1="45.0375" x2="27.7872" y2="45.0375" gradientUnits="userSpaceOnUse">
<stop stop-color="#03ADCB"/>
<stop offset="1" stop-color="#03DABB"/>
</linearGradient>
<linearGradient id="paint3_linear" x1="12.2244" y1="38.9927" x2="27.7872" y2="38.9927" gradientUnits="userSpaceOnUse">
<stop stop-color="#03ADCB"/>
<stop offset="1" stop-color="#03DABB"/>
</linearGradient>
<linearGradient id="paint4_linear" x1="35.1006" y1="43.3017" x2="16.61" y2="58.6638" gradientUnits="userSpaceOnUse">
<stop stop-color="#90DDE8"/>
<stop offset="1" stop-color="#8ED5CB"/>
</linearGradient>
</defs>
</svg>
